<svg xmlns="http://www.w3.org/2000/svg" width="642" height="388" viewBox="191 318 642 388">
  <defs>
    <linearGradient id="d-gradient" x1="14.2994" y1="15.0125" x2="0" y2="15.0125" gradientUnits="userSpaceOnUse">
      <stop stop-color="#4467A8"/>
      <stop offset="1" stop-color="#9A6363"/>
    </linearGradient>
  </defs>

  <!-- Left curly bracket { -->
  <path d="M 295 342 C 260 342, 260 358, 260 372 L 260 492 C 260 507, 230 512, 215 512 C 230 512, 260 517, 260 532 L 260 652 C 260 666, 260 682, 295 682" fill="none" stroke="#FFFFFF" stroke-width="28" stroke-linecap="round"/>

  <!-- Right curly bracket } -->
  <path d="M 729 342 C 764 342, 764 358, 764 372 L 764 492 C 764 507, 794 512, 809 512 C 794 512, 764 517, 764 532 L 764 652 C 764 666, 764 682, 729 682" fill="none" stroke="#FFFFFF" stroke-width="28" stroke-linecap="round"/>

  <!-- Denna D -->
  <g transform="translate(361, 364) scale(10)">
    <path d="M9.63965 0C13.0589 2.70113e-05 16.001 0.281911 18.4648 0.845703C20.9286 1.40952 22.9824 2.31431 24.625 3.56055C26.5021 4.98482 27.91 6.61739 28.8486 8.45703C29.804 10.2967 30.2822 12.3074 30.2822 14.4883C30.2822 16.5653 29.8547 18.5169 29 20.3418C28.1619 22.1667 26.9209 23.762 25.2783 25.127C23.6525 26.4771 21.6323 27.5457 19.2188 28.332C16.822 29.1183 14.0724 29.5117 10.9717 29.5117H0.191406C0.87459 27.3306 2.22054 25.221 4.13281 23.3359V27.3525H10.0918C11.969 27.3525 13.7381 27.0782 15.3975 26.5293C17.0566 25.9803 18.4982 25.164 19.7217 24.0811C20.9619 22.998 21.9347 21.6702 22.6387 20.0977C23.3594 18.5101 23.7197 16.6768 23.7197 14.5996C23.7197 12.7749 23.3842 11.106 22.7139 9.59277C22.0434 8.06462 21.1042 6.75124 19.8975 5.65332C18.6907 4.55547 17.2492 3.70206 15.5732 3.09375C13.9139 2.48546 12.0949 2.18071 10.1172 2.18066H4.13281V6.66797C2.05079 4.63265 0.641818 2.34966 0.0361328 0H9.63965ZM0 5.22656C1.0861 6.86235 2.48831 8.374 4.13281 9.72168V20.2734C2.4766 21.635 1.08062 23.1579 0 24.7988V5.22656Z" fill="white"/>
    <path d="M0 24.7985C2.87815 20.4281 7.99545 16.9001 14.2994 15.0049C10.8158 13.9455 7.6912 12.3915 5.1074 10.4815C3.03841 8.95195 1.29497 7.17695 0 5.22656V24.7985Z" fill="white"/>
    <path d="M0 24.7985C2.87815 20.4281 7.99545 16.9001 14.2994 15.0049C10.8158 13.9455 7.6912 12.3915 5.1074 10.4815C3.03841 8.95195 1.29497 7.17695 0 5.22656V24.7985Z" fill="url(#d-gradient)"/>
  </g>
</svg>
